/* XPM */
static char * pencil_xpm[] = {
"16 16 51 1",
" 	c None",
".	c #1F1A0C",
"+	c #8F8D87",
"@	c #7C6526",
"#	c #574920",
"$	c #AFA898",
"%	c #817249",
"&	c #D2A931",
"*	c #FFD14D",
"=	c #FFD65F",
"-	c #FFDA71",
";	c #FFDF84",
">	c #D4BD7C",
",	c #C79C21",
"'	c #FFCC3B",
")	c #FFE496",
"!	c #C9B785",
"~	c #BD9011",
"{	c #FFC829",
"]	c #FFE8A8",
"^	c #BEB18B",
"/	c #FCA104",
"(	c #FFC120",
"_	c #FFCD42",
":	c #FFB20F",
"<	c #FFCE2D",
"[	c #FFDD7A",
"}	c #FFE486",
"|	c #FCD61E",
"1	c #FF9000",
"2	c #FF8D00",
"3	c #FFAF0C",
"4	c #FFA400",
"5	c #FFA100",
"6	c #FFC700",
"7	c #FFC909",
"8	c #FFD529",
"9	c #FFDA00",
"0	c #FFD801",
"a	c #FF8A00",
"b	c #FFD200",
"c	c #F39C03",
"d	c #FF8C00",
"e	c #FFD901",
"f	c #F1CB1A",
"g	c #E69E08",
"h	c #F6A706",
"i	c #FBA905",
"j	c #EDBE17",
"k	c #DCB121",
"l	c #CDAB21",
"                ",
"                ",
"       .+       ",
"      @#$%      ",
"     &*=-;>     ",
"    ,'*=-;)!    ",
"   ~{'*=-;)]^   ",
"   /('_:<[)}|   ",
"   1234567890   ",
"   1a45566b90   ",
"   1a45566b90   ",
"   1a45566b90   ",
"   cd45566bef   ",
"     ghijkl     ",
"                ",
"                "};
