/* XPM */
static char *pencil[] = {
/* columns rows colors chars-per-pixel */
"48 48 179 2 ",
"   c #7D693D",
".  c #3B555C",
"X  c #1D4B6B",
"o  c #184A6D",
"O  c #194A6D",
"+  c #194B6E",
"@  c #1A4C6E",
"#  c #1C4D6F",
"$  c #1D4E70",
"%  c #254E67",
"&  c #264E66",
"*  c #274F66",
"=  c #284F65",
"-  c #294F65",
";  c #204D69",
":  c #214D69",
">  c #224D68",
",  c #2A5064",
"<  c #205072",
"1  c #215173",
"2  c #245475",
"3  c #265576",
"4  c #275677",
"5  c #2A5879",
"6  c #2D5B7B",
"7  c #325E7E",
"8  c #34607E",
"9  c #34607F",
"0  c #4E5B53",
"q  c #4D5A54",
"w  c #505B52",
"e  c #525C52",
"r  c #61614A",
"t  c #60604B",
"y  c #62614A",
"u  c #63614A",
"i  c #656249",
"p  c #9B722F",
"a  c #9D732E",
"s  c #826B3B",
"d  c #896C38",
"f  c #906F35",
"g  c #9A7230",
"h  c #AC7727",
"j  c #AD7826",
"k  c #B77B21",
"l  c #B07925",
"z  c #B27924",
"x  c #B37A24",
"c  c #BA7B21",
"v  c #B97C21",
"b  c #B87C23",
"n  c #C27E1D",
"m  c #DE870F",
"M  c #C4801C",
"N  c #D18216",
"B  c #D18316",
"V  c #D48414",
"C  c #DB8611",
"Z  c #DC8710",
"A  c #DD8710",
"S  c #DC8711",
"D  c #E6890B",
"F  c #E1880E",
"G  c #E0880F",
"H  c #E5890C",
"J  c #E4890D",
"K  c #EB8B09",
"L  c #E98A0A",
"P  c #E98B0A",
"I  c #E88A0B",
"U  c #EA8B0A",
"Y  c #EE8B08",
"T  c #F18D06",
"R  c #F28D06",
"E  c #F68E04",
"W  c #F88F03",
"Q  c #FA9002",
"!  c #FB9002",
"~  c #FC9001",
"^  c #FD9001",
"/  c #FE9100",
"(  c #FF9100",
")  c #366280",
"_  c #3A6583",
"`  c #3D6785",
"'  c #3E6885",
"]  c #446C89",
"[  c #466E8B",
"{  c #4E7490",
"}  c #4E7590",
"|  c #537993",
" . c #597D97",
".. c #5B8098",
"X. c #5D8099",
"o. c #63859D",
"O. c #65879E",
"+. c #66879F",
"@. c #6788A0",
"#. c #6788A2",
"$. c #6889A1",
"%. c #698AA2",
"&. c #6B8CA3",
"*. c #6C8CA3",
"=. c #6B8CA4",
"-. c #6D8EA4",
";. c #6E8EA4",
":. c #6E8FA5",
">. c #708FA5",
",. c #728FA7",
"<. c #7190A6",
"1. c #7291A7",
"2. c #7392A7",
"3. c #7391A8",
"4. c #7593A9",
"5. c #7693A9",
"6. c #7593AA",
"7. c #7594AA",
"8. c #7795AA",
"9. c #7895AB",
"0. c #7896AB",
"q. c #7997AB",
"w. c #7A98AC",
"e. c #7B99AC",
"r. c #7A98AE",
"t. c #7C99AD",
"y. c #7C9AAD",
"u. c #7D99AE",
"i. c #7D9AAE",
"p. c #7E9AAE",
"a. c #7E9AAF",
"s. c #7E9BAF",
"d. c #809AAF",
"f. c #809BAF",
"g. c #809BB0",
"h. c #809CB0",
"j. c #809DB0",
"k. c #809DB1",
"l. c #819DB1",
"z. c #84A0B2",
"x. c #85A0B3",
"c. c #87A1B3",
"v. c #87A2B4",
"b. c #88A3B5",
"n. c #89A3B6",
"m. c #8AA4B6",
"M. c #8BA4B7",
"N. c #8CA5B7",
"B. c #8CA5B8",
"V. c #8EA6B9",
"C. c #8EA7B9",
"Z. c #8FA7BA",
"A. c #8EA8B9",
"S. c #8FA8BA",
"D. c #90A9BA",
"F. c #92ABBC",
"G. c #94ACBC",
"H. c #95ACBD",
"J. c #96ADBD",
"K. c #95ADBE",
"L. c #96AEBE",
"P. c #97AEBF",
"I. c #98AFBF",
"U. c #99AFBF",
"Y. c #99B0C0",
"T. c #9BB1C1",
"R. c #9BB2C1",
"E. c #9BB1C2",
"W. c #9BB2C2",
"Q. c #9CB2C1",
"!. c #9CB2C2",
"~. c #9DB2C2",
"^. c #9DB3C2",
"/. c #9EB3C3",
"(. c #9FB4C4",
"). c #A0B5C4",
"_. c #A0B6C5",
"`. c #A1B6C5",
"'. c None",
/* pixels */
"'.'.'.'.'.'.'.'.'.'.'.'.'.'.'.'.'.'.#.7.y.x.A.T.T.A.x.y.5.'.'.'.'.'.'.'.'.'.'.'.'.'.'.'.'.'.'.'.",
"'.'.'.'.'.'.'.'.'.'.'.'.'.'.'.&.k.^.`.`.`.`.`.`.`.`.`.`.`.`.^.k.:.'.'.'.'.'.'.'.'.'.'.'.'.'.'.'.",
"'.'.'.'.'.'.'.'.'.'.'.'.'.1.T.`.`.`.`.`.`.`.`.`.`.`.`.`.`.`.`.`.`.T.5.'.'.'.'.'.'.'.'.'.'.'.'.'.",
"'.'.'.'.'.'.'.'.'.'.'.*.H.`.`.`.`.`.`.`.`.`.`.`.`.`.`.`.`.`.`.`.`.`.`.I.1.'.'.'.'.'.'.'.'.'.'.'.",
"'.'.'.'.'.'.'.'.'.'.b.`.`.`.`.`.`.`.`.`.`.`.`.`.`.`.`.`.`.`.`.`.`.`.`.`.`.b.'.'.'.'.'.'.'.'.'.'.",
"'.'.'.'.'.'.'.'.'.H.`.`.`.`.`.`.`.`.`.`.`.`.`.`.`.`.`.`.`.`.`.`.`.`.`.`.`.`.H.'.'.'.'.'.'.'.'.'.",
"'.'.'.'.'.'.'.%.^.`.`.`.`.`.`.`.`.`.`.`.`.`.`.`.`.`.`.`.`.`.`.`.`.`.`.`.`.`.`.^.,.'.'.'.'.'.'.'.",
"'.'.'.'.'.'.%.`.`.`.`.`.`.`.`.`.`.`.`.`.`.`.`.`.`.`.`.`.`.`.`.`.`.`.`.`.`.`.`.`.`.3.'.'.'.'.'.'.",
"'.'.'.'.'.'.^.`.`.`.`.`.`.`.`.`.`.`.`.`.`.`.`.`.`.`.`.`.`.`.`.`.`.`.`.`.`.`.`.`.`.(.'.'.'.'.'.'.",
"'.'.'.'.'.H.`.`.`.`.`.`.`.`.`.`.`.`.`.`.`.`.`.`.`.`.`.`.`.`.`.`.`.`.`.`.`.`.`.`.`.`.H.'.'.'.'.'.",
"'.'.'.'.b.`.`.`.`.`.`.`.`.`.`.`.`.`.`.`.`.`.`.`.`.`.`.`.`.`.`.`.`.`.`.`.`.`.`.`.`.`.`.b.'.'.'.'.",
"'.'.'.*.`.`.`.`.`.`.`.`.`.`.`.`.`.`.`.`.`.`.`.`.`.`.`.`.`.`.`.`.`.`.`.`.`.`.`.`.`.`.`.`.7.'.'.'.",
"'.'.'.H.`.`.`.`.`.`.`.`.`.`.`.`.`.`.`.`.`.`.`.`.`.`.`.`.`.`.`.`.`.`.`.`.`.`.`.`.`.`.`.`.H.'.'.'.",
"'.'.1.`.`.`.`.`.`.`.`.`.`.`.`.`.`.`.`.`.`.`.`.`.`.`.`.`.`.`.`.`.`.`.`.`.`.`.`.`.`.`.`.`.`.q.'.'.",
"'.'.T.`.`.`.`.`.`.`.`.`.`.`.`.`.`.`.`.`.`.`.`.`.`.`.I.y.`.`.`.`.`.`.`.`.`.`.`.`.`.`.`.`.`.^.'.'.",
"'.=.`.`.`.`.`.`.`.`.`.`.`.`.`.`.`.`.`.`.`.`.`.`.`.y.4 o { ^.`.`.`.`.`.`.`.`.`.`.`.`.`.`.`.`.8.'.",
"'.k.`.`.`.`.`.`.`.`.`.`.`.`.`.`.`.`.`.`.`.`.`.^.| o o o o 5 k.`.(.`.`.`.`.`.`.`.`.`.`.`.`.`.x.'.",
"'.^.`.`.`.`.`.`.`.`.`.`.`.`.`.`.`.`.`.`.`.`.v.6 o o o o o o o  .(.`.`.`.`.`.`.`.`.`.`.`.`.`.T.'.",
"+.`.`.`.`.`.`.`.`.`.`.`.`.`.`.`.`.`.`.`.(. .o o o o o o o o o o 8 b.`.`.`.`.`.`.`.`.`.`.`.`.`.'.",
"5.`.`.`.`.`.`.`.`.`.`.`.`.`.`.`.`.`.`.V.) o o o o o o X o o o o o # o.(.`.`.`.`.`.`.`.`.`.`.`.t.",
"t.`.`.`.`.`.`.`.`.`.`.`.`.`.`.`.`.`.@.$ o o o o o , l G e o o o o o o _ D.`.`.`.`.`.`.`.`.`.`.k.",
"x.`.`.`.`.`.`.`.`.`.`.`.`.`.`.`.F.` o o o o o o u K ( ( ( a > o o o o o 1 *.`.`.`.`.`.`.`.`.`.b.",
"A.`.`.`.`.`.`.`.`.`.`.`.`.`.`.1.1 o o o o o - l ( ( ( ( ( ( G w o o o o o o ] H.`.`.`.`.`.`.`.A.",
"T.`.`.`.`.`.`.`.`.`.`.`.`.H.[ o o o o o o t U ( ( ( ( ( ( ( ( ( p > o o o o o 4 0.`.`.`.`.`.`.T.",
"T.(.`.`.`.`.`.`.`.`.`.`.e.3 o o o o o % j ( ( ( ( ( ( ( ( ( ( ( ( m 0 o o o o o o { T.`.`.`.`.^.",
"b.`.`.`.`.`.`.`.`.`.`.y.o o o o o o t U ( ( ( ( ( ( ( ( ( ( ( ( ( ( ( g X o o o o o ' `.`.`.`.H.",
"y.`.`.`.`.`.`.`.`.`.`.8.o o o o , h ( ( ( ( ( ( ( ( ( ( ( ( ( ( ( ( ( ( m q o o o o ) `.`.`.`.V.",
">.`.`.`.`.`.`.`.`.`.`.8.o o o > H ( ( ( ( ( ( ( ( ( ( ( ( ( ( ( ( ( ( ( ( ( t o o o ) `.`.`.`.b.",
"+.`.`.`.`.`.`.`.`.`.`.8.o o o - ( ( ( ( ( Q T T T T T T T T T T Q ( ( ( ( (   o o o ) `.`.`.`.s.",
"'.`.`.`.`.`.`.`.`.`.`.8.o o o % ( ( ( ( ( ( H v f u . % w s l H ( ( ( ( ( (   o o o ) `.`.`.`.'.",
"'.(.`.`.`.`.`.`.`.`.`.8.o o o % ( ( ( ( ( ( ( ( ( ( ( ( ( ( ( ( ( ( ( ( ( (   o o o ) `.`.`.`.'.",
"'.g.`.`.`.`.`.`.`.`.`.7.o o o % ( ( ( ( ( ( ( ( ( ( ( ( ( ( ( ( ( ( ( ( ( (   o o o ) `.`.`.V.'.",
"'...`.`.`.`.`.`.`.`.`.8.o o o % ( ( ( ( ( ( ( ( ( ( ( ( ( ( ( ( ( ( ( ( ( (   o o o ) `.`.`.f.'.",
"'.'.N.`.`.`.`.`.`.`.`.8.o o o - ( ( ( ( ( ( ( ( ( ( ( ( ( ( ( ( ( ( ( ( ( (   o o o ) `.`.I.'.'.",
"'.'.*.`.`.`.`.`.`.`.`.8.o o o % ( ( ( ( ( ( ( ( ( ( ( ( ( ( ( ( ( ( ( ( ( (   o o o ) `.`.y.'.'.",
"'.'.'.T.`.`.`.`.`.`.`.7.o o o % ( ( ( ( ( ( ( ( ( ( ( ( ( ( ( ( ( ( ( ( ( (   o o o ) `.^.'.'.'.",
"'.'.'.1.`.`.`.`.`.`.`.8.o o o % ( ( ( ( ( ( ( ( ( ( ( ( ( ( ( ( ( ( ( ( ( (   o o o ) `.r.'.'.'.",
"'.'.'.'.y.`.`.`.`.`.`.8.o o o - ( ( ( ( ( ( ( ( ( ( ( ( ( ( ( ( ( ( ( ( ( (   o o o ) c.'.'.'.'.",
"'.'.'.'.'.A.`.`.`.`.`.8.o O o % ( ( ( ( ( ( ( ( ( ( ( ( ( ( ( ( ( ( ( ( ( (   o o o 9 '.'.'.'.'.",
"'.'.'.'.'.'.^.`.`.`.).7.o O O % ( ( ( ( ( ( ( ( ( ( ( ( ( ( ( ( ( ( ( ( ( (   o o o '.'.'.'.'.'.",
"'.'.'.'.'.'.1.`.`.`.`.8.o o o % ( ( ( ( ( ( ( ( ( ( ( ( ( ( ( ( ( ( ( ( ( (   o o '.'.'.'.'.'.'.",
"'.'.'.'.'.'.'.-.^.`.`.8.o o o % ( ( ( ( ( ( ( ( ( ( ( ( ( ( ( ( ( ( ( ( ( (   o '.'.'.'.'.'.'.'.",
"'.'.'.'.'.'.'.'.'.Z.`.8.o o o - ( ( ( ( ( ( ( ( ( ( ( ( ( ( ( ( ( ( ( ( ( ( d '.'.'.'.'.'.'.'.'.",
"'.'.'.'.'.'.'.'.'.'.f.8.o o o % ( ( ( ( ( ( ( ( ( ( ( ( ( ( ( ( ( ( ( ( ( N '.'.'.'.'.'.'.'.'.'.",
"'.'.'.'.'.'.'.'.'.'.'.'.o o o % ( ( ( ( ( ( ( ( ( ( ( ( ( ( ( ( ( ( ( T c '.'.'.'.'.'.'.'.'.'.'.",
"'.'.'.'.'.'.'.'.'.'.'.'.'.'.o - ( ( ( ( ( ( ( ( ( ( ( ( ( ( ( ( ( Y M '.'.'.'.'.'.'.'.'.'.'.'.'.",
"'.'.'.'.'.'.'.'.'.'.'.'.'.'.'.'.S Q ( ( ( ( ( ( ( ( ( ( ( ( Q S v '.'.'.'.'.'.'.'.'.'.'.'.'.'.'.",
"'.'.'.'.'.'.'.'.'.'.'.'.'.'.'.'.'.'.'.n V S U W E D C N c '.'.'.'.'.'.'.'.'.'.'.'.'.'.'.'.'.'.'."
};
